<svg width="400" height="408" viewBox="0 0 400 408" fill="none" xmlns="http://www.w3.org/2000/svg">
<path fill-rule="evenodd" clip-rule="evenodd" d="M200.484 21.2999C200.235 21.7949 199.107 24.4499 197.977 27.1999C196.846 29.9499 195.489 33.1339 194.961 34.2749C194.432 35.4169 194 36.4609 194 36.5969C194 36.8099 193.365 38.3349 192 41.3999C191.804 41.8399 191.264 43.0999 190.8 44.1999C190.336 45.2999 189.797 46.5599 189.603 46.9999C189.408 47.4399 188.331 50.0499 187.208 52.7999C186.086 55.5499 185.006 58.1598 184.807 58.5998C183.428 61.6528 182.466 63.9419 182.202 64.7999C182.032 65.3499 181.368 66.9699 180.725 68.3999C178.725 72.8559 178.527 73.3158 177.2 76.5998C176.489 78.3598 175.676 80.3399 175.393 80.9999C175.111 81.6599 174.592 82.8748 174.24 83.6998C173.888 84.5248 173.349 85.7849 173.043 86.4999C172.737 87.2149 171.098 91.1299 169.402 95.1999C167.706 99.2699 166.167 102.96 165.981 103.4C164.802 106.195 163.867 108.366 163.371 109.46C163.057 110.154 162.8 110.824 162.8 110.95C162.8 111.075 162.362 112.128 161.826 113.289C161.291 114.45 160.204 117.02 159.412 119C158.62 120.98 157.808 122.96 157.608 123.4C157.408 123.84 156.861 125.1 156.393 126.2C155.925 127.3 155.273 128.83 154.944 129.6C154.615 130.37 154.196 131.36 154.014 131.8C153.831 132.24 152.312 135.84 150.638 139.8C148.965 143.76 147.596 147.135 147.598 147.299C147.599 147.463 147.051 148.813 146.379 150.299C144.316 154.863 144.161 155.221 141.6 161.4C140.232 164.7 138.881 167.94 138.598 168.6C138.316 169.26 137.895 170.25 137.664 170.8C136.298 174.049 135.514 175.894 135.199 176.6C135.002 177.04 133.651 180.28 132.197 183.8C130.742 187.32 129.393 190.56 129.198 191C127.794 194.17 127.2 195.582 127.2 195.75C127.2 195.857 126.649 197.172 125.975 198.672C125.301 200.172 124.6 201.76 124.418 202.2C124.236 202.64 123.233 205.07 122.189 207.6C121.146 210.13 120.06 212.74 119.777 213.4C119.494 214.06 117.612 218.56 115.595 223.4C113.578 228.24 111.692 232.74 111.406 233.4C111.119 234.06 110.701 235.05 110.478 235.6C110.031 236.702 108.648 239.927 107.82 241.8C107.528 242.46 106.434 245.07 105.388 247.6C104.342 250.13 103.062 253.134 102.543 254.275C102.024 255.417 101.6 256.461 101.6 256.597C101.6 256.81 101.008 258.234 99.601 261.4C99.405 261.84 98.315 264.45 97.177 267.2C96.039 269.95 94.679 273.15 94.154 274.311C93.629 275.472 93.194 276.552 93.186 276.711C93.179 276.87 92.825 277.72 92.4 278.6C91.975 279.48 91.621 280.322 91.614 280.472C91.606 280.622 91.049 281.972 90.375 283.472C89.701 284.972 88.999 286.56 88.815 287C88.632 287.44 87.094 291.13 85.398 295.2C83.702 299.27 80.962 305.84 79.31 309.8C77.657 313.76 76.044 317.63 75.723 318.4C75.403 319.17 74.897 320.34 74.6 321C74.169 321.956 69.832 332.291 66.124 341.2C65.803 341.97 65.303 343.14 65.013 343.8C64.191 345.667 63.817 346.559 60.99 353.4C59.536 356.92 58.182 360.16 57.981 360.6C56.596 363.639 56.751 364.092 58.881 363.227C59.387 363.022 60.79 362.573 62 362.229C63.21 361.885 65.82 361.139 67.8 360.57C69.78 360.001 72.39 359.265 73.6 358.933C74.81 358.602 76.7 358.07 77.8 357.752C78.9 357.433 80.7 356.927 81.8 356.626C82.9 356.326 84.79 355.782 86 355.419C87.21 355.056 88.83 354.599 89.6 354.404C90.886 354.078 93.876 353.231 99 351.741C100.1 351.421 101.63 350.998 102.4 350.802C106.507 349.755 107.514 349.46 108.714 348.954C109.436 348.649 110.33 348.4 110.7 348.4C111.07 348.4 112.099 348.153 112.987 347.851C113.874 347.549 115.68 346.997 117 346.623C123.268 344.848 126.315 343.762 130.039 341.976C130.391 341.807 132.461 340.911 134.639 339.986C138.27 338.442 143.369 335.922 148.053 333.356C165.935 323.558 166.661 312.792 150.6 295.611C145.05 289.674 142.798 286.75 141.041 283.2C134.806 270.601 140.803 262.88 162.2 255.959C164.4 255.247 166.767 254.425 167.46 254.132C168.154 253.84 169.088 253.6 169.537 253.6C169.986 253.6 170.452 253.44 170.573 253.244C170.694 253.049 171.289 252.772 171.896 252.63C172.503 252.487 174.71 251.833 176.8 251.176C178.89 250.519 181.59 249.69 182.8 249.335C184.01 248.979 185.36 248.536 185.8 248.351C186.24 248.166 187.32 247.845 188.2 247.638C189.08 247.43 191.69 246.691 194 245.994C196.31 245.296 199.19 244.466 200.4 244.148C201.61 243.83 203.59 243.3 204.8 242.97C206.01 242.64 207.99 242.1 209.2 241.77C211.223 241.219 212.579 240.872 217.6 239.62C235.434 235.174 237.165 227.085 222.6 216.251C220.62 214.779 218.783 213.4 218.517 213.187C218.251 212.974 217.945 212.8 217.837 212.8C217.533 212.8 214.051 210.44 211.53 208.524C210.282 207.576 209.146 206.8 209.007 206.8C208.867 206.8 207.29 205.686 205.502 204.325C199.474 199.737 196.942 196.848 191.013 187.8C187.986 183.18 185.168 178.91 184.751 178.312C182.828 175.549 178 168.3 178 168.174C178 168.097 176.65 166.027 175 163.574C173.35 161.121 172 158.982 172 158.819C172 158.249 170.446 157.125 170.021 157.387C169.784 157.533 168.885 158.716 168.022 160.015C167.159 161.315 166.253 162.608 166.009 162.889C165.765 163.17 164.178 165.331 162.482 167.692C160.787 170.052 157.424 174.732 155.009 178.092C152.595 181.451 150.48 184.26 150.309 184.333C150.139 184.407 150 184.619 150 184.805C150 185.175 141.469 197.193 139.327 199.841C138.597 200.744 138 201.661 138 201.88C138 202.394 135.279 205.2 134.781 205.2C134.308 205.2 134.287 204.218 134.741 203.295C135.112 202.54 136.182 200.108 136.984 198.2C137.261 197.54 137.677 196.55 137.908 196C138.507 194.574 139.957 191.209 140.58 189.8C140.872 189.14 141.966 186.53 143.012 184C144.058 181.47 145.428 178.275 146.057 176.899C146.686 175.523 147.2 174.233 147.2 174.031C147.2 173.83 147.453 173.155 147.763 172.532C148.073 171.91 148.51 170.95 148.736 170.4C148.961 169.85 149.417 168.77 149.748 168C150.079 167.23 151.815 163.09 153.606 158.8C155.397 154.51 157.105 150.46 157.402 149.8C157.698 149.14 158.236 147.88 158.597 147C158.959 146.12 159.412 145.04 159.605 144.6C159.908 143.91 160.59 142.303 161.981 139C162.166 138.56 162.716 137.21 163.204 136C163.691 134.79 164.495 132.9 164.991 131.8C165.486 130.7 166.826 127.55 167.968 124.8C170.898 117.748 171.315 116.76 172.571 113.9C172.885 113.185 174.794 108.64 176.813 103.8C178.833 98.9599 180.718 94.4599 181.003 93.7999C181.287 93.1399 181.79 91.9699 182.12 91.1999C182.45 90.4299 182.995 89.1699 183.33 88.3999C183.666 87.6299 184.236 86.2799 184.597 85.3999C184.959 84.5199 185.413 83.4399 185.607 82.9999C185.801 82.5599 186.704 80.3998 187.612 78.1998C188.521 75.9998 189.583 73.4798 189.973 72.5998C190.362 71.7198 191.009 70.1898 191.411 69.1998C192.373 66.8288 193.556 63.9969 194 62.9999C194.196 62.5599 194.736 61.2999 195.2 60.1999C195.664 59.0999 196.197 57.8399 196.385 57.3999C196.573 56.9599 197.414 54.9279 198.254 52.8839C200.561 47.2719 200.601 47.2979 204.598 56.9999C206.048 60.5199 207.432 63.8499 207.673 64.3999C208.789 66.9409 209.374 68.2909 209.843 69.3999C210.122 70.0599 210.722 71.4219 211.175 72.4259C211.629 73.4309 212 74.3699 212 74.5139C212 74.6579 212.463 75.8168 213.03 77.0878C213.596 78.3598 214.328 80.0299 214.657 80.7999C214.985 81.5699 215.412 82.5599 215.604 82.9999C215.797 83.4399 216.884 86.0499 218.019 88.7999C219.155 91.5499 220.326 94.3399 220.621 94.9999C220.916 95.6599 221.617 97.2239 222.179 98.4749C222.74 99.7269 223.2 100.861 223.2 100.997C223.2 101.133 223.573 102.089 224.029 103.122C224.485 104.155 225.127 105.63 225.456 106.4C225.785 107.17 226.212 108.16 226.405 108.6C226.718 109.313 227.636 111.478 228.864 114.4C229.095 114.95 229.522 115.94 229.813 116.6C230.103 117.26 230.638 118.52 231 119.4C231.363 120.28 231.897 121.54 232.188 122.2C232.605 123.149 237.006 133.606 242.961 147.8C243.238 148.46 243.745 149.63 244.089 150.4C245.635 153.865 246 154.736 246 154.959C246 155.091 246.516 156.323 247.146 157.699C247.777 159.075 249.682 163.53 251.38 167.6C255.156 176.654 254.879 176.004 256.419 179.4C261.606 190.832 260.435 190.969 252.982 179.8C250.487 176.06 247.437 171.56 246.204 169.8C244.061 166.74 238.462 158.526 237.2 156.593C236.87 156.087 235.7 154.352 234.6 152.737C233.5 151.121 232.51 149.62 232.4 149.4C230.515 145.629 229.915 146.04 225.683 154C225.157 154.99 224.113 156.814 223.363 158.052C222.613 159.291 222 160.444 222 160.615C222 160.785 221.55 161.514 221 162.236C220.45 162.957 220 163.647 220 163.769C220 163.891 218.994 165.793 217.763 167.996C214.965 173.006 214.689 173.046 212.2 168.8C210.123 165.257 209.697 165.023 208.759 166.91C208.406 167.619 206.555 170.589 204.646 173.51C197.895 183.836 197.051 186.612 199.299 191.112C200.872 194.263 207.769 200.067 211.728 201.572C212.342 201.806 213.779 202.427 214.922 202.953C216.065 203.478 217.765 204.199 218.7 204.554C222.926 206.16 223.851 206.517 224.6 206.836C225.04 207.023 226.57 207.555 228 208.017C229.43 208.479 230.96 209.019 231.4 209.218C231.84 209.416 233.19 209.948 234.4 210.4C237.053 211.391 237.094 211.409 242.532 213.96C262.595 223.37 267.594 236.441 255.832 248.734C253.448 251.226 252.541 251.814 244.659 255.978C229.241 264.123 218.908 271.403 214.037 277.553C207.407 285.925 212.59 298.677 227.6 310.924C229.25 312.27 230.69 313.478 230.8 313.608C231.836 314.838 246.191 323.963 252.2 327.213C259.458 331.137 272.953 337.673 279 340.192C280.98 341.017 283.5 342.101 284.6 342.601C288.219 344.246 297.78 348.08 298.8 348.296C299.35 348.412 299.981 348.649 300.203 348.822C300.622 349.149 301.987 349.667 306.4 351.171C307.83 351.658 309.36 352.219 309.8 352.418C310.827 352.881 313.964 353.992 315 354.26C315.44 354.374 316.16 354.63 316.6 354.829C317.571 355.269 329.215 359.083 334.2 360.594C336.18 361.194 338.107 361.842 338.483 362.035C338.858 362.227 339.897 362.502 340.791 362.645C341.686 362.788 342.514 363.061 342.632 363.253C342.96 363.782 344 363.667 344.004 363.1C344.006 362.68 341.757 357.043 339.812 352.6C339.524 351.94 338.174 348.7 336.813 345.4C335.453 342.1 334.1 338.86 333.807 338.2C333.515 337.54 332.166 334.3 330.81 331C329.453 327.7 328.186 324.64 327.994 324.2C327.801 323.76 327.264 322.5 326.8 321.4C326.336 320.3 325.792 319.04 325.592 318.6C325.392 318.16 324.583 316.18 323.794 314.2C323.005 312.22 322.199 310.24 322.002 309.8C320.769 307.047 320 305.216 320 305.033C320 304.917 319.571 303.872 319.046 302.711C318.522 301.55 317.428 298.98 316.617 297C315.805 295.02 314.872 292.77 314.543 292C314.215 291.23 313.759 290.15 313.531 289.6C313.303 289.05 312.884 288.06 312.601 287.4C312.317 286.74 311.426 284.58 310.62 282.6C309.814 280.62 308.96 278.55 308.721 278C307.702 275.649 307.161 274.352 305.387 270C303.566 265.535 303.152 264.547 301.871 261.6C301.536 260.83 300.418 258.13 299.387 255.6C298.355 253.07 297.279 250.46 296.995 249.8C295.159 245.527 294.775 244.608 292.975 240.2C292.167 238.22 291.187 235.88 290.799 235C290.41 234.12 289.613 232.23 289.028 230.8C288.443 229.37 287.801 227.84 287.602 227.4C287.404 226.96 286.131 223.9 284.774 220.6C283.417 217.3 281.952 213.79 281.517 212.8C281.083 211.81 280.583 210.64 280.406 210.2C278.803 206.213 276.233 199.968 275.798 199C275.172 197.605 274.59 196.207 272.804 191.8C272.091 190.04 271.265 188.06 270.968 187.4C268.804 182.586 268 180.708 268.002 180.472C268.004 180.322 266.632 176.96 264.955 173C263.278 169.04 261.645 165.17 261.326 164.4C261.007 163.63 260.584 162.64 260.387 162.2C260.189 161.76 259.383 159.78 258.594 157.8C257.805 155.82 256.999 153.84 256.802 153.4C256.605 152.96 256.064 151.7 255.6 150.6C255.136 149.5 254.592 148.24 254.392 147.8C254.192 147.36 253.383 145.38 252.594 143.4C251.805 141.42 250.999 139.44 250.802 139C250.605 138.56 250.064 137.3 249.6 136.2C249.136 135.1 248.599 133.84 248.406 133.4C248.214 132.96 246.947 129.9 245.59 126.6C244.234 123.3 242.847 119.97 242.508 119.2C241.708 117.382 241.172 116.092 239.6 112.2C238.889 110.44 238.053 108.418 237.743 107.706C237.158 106.364 236.38 104.554 235.422 102.306C235.116 101.588 234.29 99.5599 233.587 97.7999C232.883 96.0399 232.053 94.0179 231.743 93.3059C231.432 92.5939 230.932 91.4239 230.631 90.7059C230.33 89.9879 229.895 88.9499 229.665 88.3999C229.434 87.8499 228.584 85.7799 227.775 83.7999C226.967 81.8199 225.987 79.4798 225.599 78.5998C225.21 77.7198 224.41 75.8299 223.821 74.3999C222.852 72.0469 222.207 70.5238 221.199 68.1998C221.008 67.7598 220.019 65.3299 219.002 62.7999C217.984 60.2699 216.906 57.6599 216.606 56.9999C216.305 56.3399 215.796 55.1699 215.475 54.3999C212.541 47.3599 209.492 40.0529 209.217 39.3999C209.031 38.9599 207.681 35.7199 206.217 32.1999C204.752 28.6799 203.401 25.4399 203.213 24.9999C203.025 24.5599 202.54 23.3459 202.136 22.3009C201.302 20.1489 201.117 20.0369 200.484 21.2999Z" fill="#255FDB"/>
</svg>
